<?xml version="1.0" encoding="UTF-8" standalone="no"?>
<svg
   width="15.820641"
   height="15.145138"
   viewBox="0 0 15.820641 15.145138"
   fill="none"
   version="1.1"
   id="svg4"
   sodipodi:docname="fa5c0304eb7e2c98ba7733a67246c4c5.svg"
   xmlns:inkscape="http://www.inkscape.org/namespaces/inkscape"
   xmlns:sodipodi="http://sodipodi.sourceforge.net/DTD/sodipodi-0.dtd"
   xmlns="http://www.w3.org/2000/svg"
   xmlns:svg="http://www.w3.org/2000/svg">
  <defs
     id="defs8" />
  <sodipodi:namedview
     id="namedview6"
     pagecolor="#ffffff"
     bordercolor="#666666"
     borderopacity="1.0"
     inkscape:pageshadow="2"
     inkscape:pageopacity="0.0"
     inkscape:pagecheckerboard="0" />
  <path
     d="m 6.9592651,0.6909825 c 0.29936,-0.92131 1.60276,-0.92131 1.90216,0 l 1.1817999,3.63729 c 0.1339,0.41202 0.5178,0.69098 0.951,0.69098 h 3.8245 c 0.9687,0 1.3715,1.23962 0.5878,1.80902 l -3.0941,2.24796 c -0.3505,0.2546 -0.4971,0.706 -0.3632,1.1180005 l 1.1818,3.6373 c 0.2993,0.9213 -0.7551,1.6875 -1.5389,1.1181 l -3.0939999,-2.248 c -0.3505,-0.2546 -0.8251,-0.2546 -1.17558,0 l -3.09407,2.248 c -0.78371,0.569399 -1.83819,-0.1968 -1.53884,-1.118101 l 1.18183,-3.637299 c 0.13387,-0.4120005 -0.01279,-0.8634005 -0.36327,-1.1180005 l -3.09405999,-2.24796 c -0.78372,-0.5694 -0.38094,-1.80902 0.58777999,-1.80902 h 3.82447 c 0.43323,0 0.81718,-0.27896 0.95106,-0.69098 z"
     fill="#ffb84c"
     id="path2" />
</svg>
