<?xml version="1.0" encoding="UTF-8" standalone="no"?>
<svg
   width="51.946323"
   height="75.616814"
   viewBox="0 0 51.946323 75.616814"
   fill="none"
   version="1.1"
   id="svg12"
   sodipodi:docname="3b49642808841a6e77275cb0dccff919.svg"
   xmlns:inkscape="http://www.inkscape.org/namespaces/inkscape"
   xmlns:sodipodi="http://sodipodi.sourceforge.net/DTD/sodipodi-0.dtd"
   xmlns="http://www.w3.org/2000/svg"
   xmlns:svg="http://www.w3.org/2000/svg">
  <defs
     id="defs16" />
  <sodipodi:namedview
     id="namedview14"
     pagecolor="#ffffff"
     bordercolor="#666666"
     borderopacity="1.0"
     inkscape:showpageshadow="2"
     inkscape:pageopacity="0.0"
     inkscape:pagecheckerboard="0"
     inkscape:deskcolor="#d1d1d1" />
  <path
     d="m 44.499067,42.721391 c -0.8531,-5.2172 -1.3453,-10.4836 -1.657,-15.7665 -0.2789,-4.7742 -0.5414,-9.7289 -1.7391,-14.3882 -0.525,-2.0016 -1.5093,-3.9046998 -3.757,-4.2820998 -1.0008,-0.164 -2.018,-0.0984 -3.0352,-0.082 -1.1976,0.0328 -2.3953,0.0164 -3.5929,0.0492 -2.5758,0.082 -5.1516,0.2789 -7.711,0.5578 -2.1164,0.2297 -4.2492,0.6727 -6.382,0.7547 -1.7227,0.0656 -3.4617,-0.0164 -5.1844,0.0656 -1.2633,0.0657 -3.1171999,0.0657 -4.1014999,0.9843998 -0.1149,0.1149 -0.2461,0.1805 -0.3774,0.2133 -0.0656,0.2133 -0.2133,0.4102 -0.4594,0.5086 -0.3281,0.1476 -0.5742,1.0008 -0.6726,1.5258 -0.1805,0.9679 -0.2461,1.9687 -0.2461,2.9531 -0.0328,2.1328 0.1477,4.282 0.0984,6.4148 -0.0328,1.8047 -0.2789,3.5602 -0.1804,5.3649 0.1312,2.5594 0.525,5.1023 0.9351,7.6289 0.4102,2.5758 0.7383,5.1516 1.2633,7.7109 0.5086,2.4774 1.1156,4.9383 1.6078,7.4157 0.5086,2.4773 0.8859999,4.9711 1.2960999,7.4648 0.2133,1.3125 0.4266,2.6414 0.8367,3.9047 0.2297,0.6891 0.4922,1.493 1.0992,1.9523 1.1649,0.9024 3.068,0.2789 4.3641,0.1313 2.6906,-0.2953 5.3649,-0.7219 8.0227,-1.1649 2.4445,-0.4101 4.889,-0.8039 7.35,-1.1976 1.9359,-0.3117 3.8882,-0.5742 5.8078,-1.0336 1.8375,-0.443 3.7406,-1.0172 5.2828,-2.1492 1.4437,-1.05 2.2805,-2.4446 2.5266,-4.2164 0.4921,-3.7407 -0.7875,-7.6125 -1.3946,-11.3203 z m -11.0742,3.5273 c -0.7711,2.1656 -1.7391,4.282 -2.8383,6.3 -0.5086,0.9187 -1.9687,0.1969 -1.4765,-0.7219 1.0336,-1.8867 1.9523,-3.8555 2.6906,-5.8734 0.5414,-1.493 1.214,-3.3469 1.1156,-5.0367 -1.2469,0.8695 -2.1492,2.3132 -3.0516,3.4781 -1.1156,1.4273 -2.3789,2.8711 -4.1835,3.4125 -0.4594,0.1476 -1.0993,-0.1641 -1.0829,-0.7055 0.0657,-2.543 1.493,-4.6758 2.3297,-7.0054 0.7383,-2.0344 1.3617,-4.1016 1.8867,-6.2016 -3.8882,3.0187 -6.5953,7.4484 -11.2546,9.4828 -0.5907,0.2625 -1.1813,-0.3609 -1.0829,-0.9352 0.5907,-3.5273 2.904,-6.4312 4.3149,-9.6304 0.8367,-1.9032 1.493,-3.9211 2.182,-5.8735 0.7055,-2.0343 1.3453,-4.0687 1.8703,-6.1523 0.2625,-1.0172 1.8703,-0.7055 1.6078,0.3117 -0.5414,2.1164 -1.1976,4.2 -1.9031,6.2672 -0.689,1.9852 -1.3453,4.0359 -2.1984,5.9719 -1.1485,2.5758 -2.9203,5.0039 -3.8227,7.6945 4.1836,-2.5594 6.825,-7.1695 11.0907,-9.6961 0.164,-0.0984 0.3445,-0.1312 0.525,-0.1148 0.3117,0.0164 0.6234,0.1804 0.7054,0.5086 0.0164,0.0328 0.0164,0.0656 0.0164,0.0984 0,0.0492 0.0164,0.082 0.0164,0.1312 v 0.1149 c 0,0.1148 -0.0164,0.2297 -0.0656,0.3281 -0.5578,2.5594 -1.2797,5.086 -2.1492,7.5797 -0.443,1.2469 -0.9516,2.4281 -1.493,3.6258 -0.2953,0.6398 -0.5742,1.3125 -0.7711,2.0015 1.1321,-0.8039 1.9852,-2.0343 2.8219,-3.1335 1.0992,-1.4438 2.2805,-2.904 4.0031,-3.6094 0.3938,-0.1641 0.9352,0.082 1.05,0.5086 0.6727,2.2476 -0.0984,4.7414 -0.8531,6.8742 z"
     fill="#ffffff"
     id="path2" />
  <path
     d="m 49.995167,55.944891 c -0.3445,-5.1187 -0.607,-10.2374 -1.1812,-15.3398 -0.6071,-5.3156 -1.2141,-10.6148 -1.6243,-15.9469 -0.3281,-4.282 -0.689,-8.564 -1.2304,-12.8297 -0.3774,-2.9530998 -0.9516,-6.5296398 -3.4781,-8.4491698 -1.575,-1.19766 -3.6258,-1.44375 -5.5454,-1.62422 -2.4445,-0.21328 -4.889,-0.14765 -7.3336,0.03281 -4.9546,0.36094 -9.8601,1.11563 -14.8148,1.52579 -4.1344,0.34453 -8.7444999,-0.01641 -12.3538999,2.39531 0.5578,0.39375 0.443,1.31248 -0.1148,1.49298 0,0.0328 -0.0164,0.0656 -0.0329,0.1312 -0.1148,0.4594 -0.1968,0.9516 -0.246,1.4274 -0.1641,1.3780998 -0.2461,2.7561998 -0.3118,4.1507998 -0.2953,7.1531 -0.0328,14.2898 0.6563,21.4101 0.5086,5.25 1.1976,10.4672 1.9195,15.6844 0.7055,5.1351 2.018,10.1226 3.1008,15.1758 0.3773,1.7226 0.6562,3.4781 1.2469,5.1351 0.5086,1.4602 1.2797,3.1172 2.9530999,3.4782 2.0344,0.4265 4.0852,-0.279 6.1195,-0.2954 2.5594,-0.0328 5.1352,-0.0492 7.6946,-0.2132 0.8531,-0.0493 1.7062,-0.1313 2.5593,-0.2133 -2.1328,-0.5578 -4.1015,-2.5922 -4.0359,-4.8891 0.0656,-2.8055 3.0516,-3.5437 5.3156,-4.0031 0.0164,-0.2297 0.1477,-0.4594 0.3281,-0.607 -1.0992,0.164 -2.1984,0.3281 -3.2812,0.5086 -2.6742,0.4429 -5.332,0.9023 -8.0227,1.2304 -1.1156,0.1313 -2.2476,0.3117 -3.3632,0.4102 -0.6727,0.0492 -1.411,0.0984 -2.0672,-0.0985 -1.5258,-0.4265 -2.4446,-1.6406 -2.9202999,-3.1335 -0.7547,-2.3461 -1.0008,-4.8071 -1.4274,-7.2024 -0.4594,-2.5266 -0.9023,-5.0531 -1.4601,-7.5633 -0.5579,-2.4445 -1.1157,-4.9054 -1.5094,-7.3828 -0.8039,-5.0531 -1.9524,-10.2703 -1.7063,-15.4055 0.0657,-1.3125 0.2133,-2.5921 0.1805,-3.9211 -0.0328,-1.5093 -0.0984,-3.0187 -0.0984,-4.5117 0,-1.9851 -0.2133,-5.6437 1.9687,-6.6772998 0.0328,-0.0985 0.0985,-0.1969 0.1969,-0.2789 1.4109,-1.3289 3.5766,-1.493 5.4140999,-1.5586 2.0343,-0.082 4.1343,0.1148 6.1523,-0.1641 6.0703,-0.8203 12.2555,-1.5094 18.3914,-1.3125 1.9852,0.0656 3.9375,0.6235 5.168,2.2969 1.1976,1.6241998 1.5586,3.6913998 1.9031,5.6436998 0.8531,4.8891 1.1976,9.811 1.4601,14.7657 0.279,5.3156 0.9516,10.6968 1.9852,15.914 0.6563,3.3305 1.657,7.1039 0.607,10.4672 -1.1484,3.675 -4.6429,5.3813 -8.1375,6.2672 -2.8218,0.7219 -5.7421,1.1649 -8.6461,1.5914 0.0657,0.0328 0.1313,0.082 0.1969,0.1477 0.9024,0.8531 2.2805,1.214 2.9531,2.2968 0.6891,1.0829 0.804,2.379 0.3774,3.5766 -0.4758,1.3617 -1.6406,2.6086 -3.0188,3.2649 3.1008,-0.4102 6.1852,-0.9516 9.2696,-1.575 1.9359,-0.3938 3.9211,-0.6727 5.7586,-1.411 1.6406,-0.6562 2.8547,-1.9031 3.5109,-3.5437 1.3453,-3.2321 0.7875,-6.8907 0.5742,-10.2704 z M 23.269367,6.2504112 c -1.4437,0.01638 -3.1007,0.27888 -4.364,-0.57421 -0.8203,-0.54141 -0.2133,-1.90313 0.5906,-1.54219 0.082,-0.27891 0.3117,-0.49219 0.6891,-0.49219 1.4109,-0.01641 3.6914,-0.21328 3.839,1.73906 0.0328,0.41016 -0.3117,0.86953 -0.7547,0.86953 z"
     fill="#ffffff"
     id="path4" />
  <path
     d="m 30.242067,65.411091 c -0.1148,0.1969 -0.3117,0.3446 -0.5742,0.3938 -1.4602,0.2953 -4.3805,0.7055 -4.036,2.8219 0.2297,1.4437 1.6735,2.8383 3.1336,2.9367 1.6407,0.1148 3.4946,-1.3781 3.7571,-3.0024 0.3117,-1.7718 -1.0828,-2.346 -2.2805,-3.15 z"
     fill="#ffffff"
     id="path6" />
  <path
     d="m 51.520967,53.795591 c -0.2461,-5.2992 -0.7383,-10.5984 -1.3781,-15.8648 -0.6563,-5.3157 -1.0992,-10.6313 -1.5094,-15.9797 -0.3117,-3.9375 -0.6234,-7.9242 -1.2469,-11.8125 -0.4922,-3.0515998 -1.4765,-6.3164198 -4.1015,-8.2031398 -1.6079,-1.14843003 -3.5274,-1.49297003 -5.4469,-1.72265003 -2.3789,-0.27891 -4.7906,-0.2461 -7.1695,-0.11485 -5.3485,0.29532 -10.6477,1.14844003 -15.9797,1.60782003 -4.5282,0.39375 -9.4335999,0.04921 -13.3382999,2.80546 -0.50859996,0.36094 -0.39379996,0.96797 -0.0492,1.2961 -0.90239996,0.83676 -0.93519996,3.56016 -1.00079996,4.2492598 -0.2133,2.6414 -0.2625,5.2992 -0.2953,7.9406 -0.0821,8.8922 0.7875,17.7351 1.93589996,26.5453 0.6727,5.1351 1.3781,10.2211 2.5594,15.2742 0.5742,2.4609 1.1484,4.9383 1.6898,7.4156 0.3446,1.575 0.6727,3.15 1.2961,4.6266 0.6399,1.5258 1.6242,2.7726 3.1991999,3.3797 1.9032,0.7219 4.0852,0.2297 6.0375,0 2.4118,-0.2625 4.8727,-0.1149 7.3008,-0.2133 2.5594,-0.1148 5.1188,-0.3281 7.6782,-0.6727 2.4773,-0.3445 4.9382,-0.7382 7.3992,-1.2632 1.9523,-0.4102 3.9375,-0.7547 5.857,-1.2633 1.8047,-0.4758 3.3961,-1.2141 4.643,-2.6414 1.132,-1.2797 1.7226,-2.9531 2.0507,-4.5938 0.6563,-3.5437 0.0329,-7.2351 -0.1312,-10.7953 z m -22.7555,17.768 c -1.4765,-0.0985 -2.9039,-1.493 -3.1336,-2.9367 -0.3445,-2.1164 2.5758,-2.543 4.036,-2.8219 0.2625,-0.0492 0.4593,-0.2133 0.5742,-0.3938 1.1976,0.8204 2.5922,1.3782 2.2969,3.15 -0.2625,1.6243 -2.1164,3.1172 -3.7735,3.0024 z M 5.5670671,15.847991 c 0.0164,-0.9844 0.0656,-1.9852 0.2461,-2.9532 0.0984,-0.525 0.3445,-1.3781 0.6726,-1.5257 0.2461,-0.1149 0.3938,-0.2954 0.4594,-0.5086 0.1313,-0.0328 0.2625,-0.0985 0.3774,-0.2133 0.9843,-0.9351998 2.8381999,-0.9351998 4.1014999,-0.9843998 1.7227,-0.082 3.4617,-0.0164 5.1844,-0.0656 2.1328,-0.082 4.2656,-0.525 6.382,-0.7547 2.5594,-0.2789 5.1352,-0.4758 7.711,-0.5578 1.1976,-0.0328 2.3953,-0.0328 3.5929,-0.0492 1.0172,-0.0164 2.018,-0.0821 3.0352,0.082 2.2477,0.3773 3.232,2.2640998 3.757,4.2819998 1.2141,4.6594 1.4602,9.6141 1.7391,14.3883 0.3117,5.2828 0.8039,10.5328 1.657,15.7664 0.607,3.7078 1.8867,7.5797 1.3617,11.3859 -0.2461,1.7883 -1.0828,3.1665 -2.5265,4.2165 -1.5422,1.1156 -3.4453,1.6898 -5.2828,2.1492 -1.9032,0.4758 -3.8555,0.7383 -5.8079,1.0336 -2.4445,0.3937 -4.889,0.7875 -7.35,1.1976 -2.6742,0.443 -5.332,0.8696 -8.0226,1.1649 -1.3125,0.1476 -3.2156,0.7711 -4.3641,-0.1313 -0.607,-0.4594 -0.8695,-1.2633 -1.0992,-1.9523 -0.4101,-1.2633 -0.6234,-2.5922 -0.8367,-3.9047 -0.4102,-2.4938 -0.7874999,-4.9875 -1.2960999,-7.4649 -0.5086,-2.4773 -1.1156,-4.9382 -1.6078,-7.4156 -0.525,-2.5594 -0.8531,-5.1351 -1.2633,-7.7109 -0.4102,-2.5266 -0.8039,-5.0696 -0.9352,-7.6289 -0.0984,-1.8047 0.1477,-3.5766 0.1805,-5.3649 0.082,-2.1984 -0.0984,-4.3312 -0.0656,-6.4804 z m 43.9030999,50.3671 c -0.6562,1.6407 -1.8539,2.904 -3.5109,3.5438 -1.8375,0.7383 -3.8391,1.0172 -5.7586,1.4109 -3.0844,0.6235 -6.1688,1.1813 -9.2695,1.575 1.3945,-0.6562 2.5429,-1.9031 3.0187,-3.2648 0.4266,-1.1977 0.3117,-2.4938 -0.3773,-3.5766 -0.6891,-1.0664 -2.0672,-1.4437 -2.9532,-2.2968 -0.0656,-0.0657 -0.1312,-0.1149 -0.1968,-0.1477 2.9039,-0.4266 5.8078,-0.8695 8.6461,-1.5914 3.4945,-0.8859 7.0054,-2.5922 8.1375,-6.2672 1.05,-3.3633 0.0492,-7.1203 -0.6071,-10.4672 -1.0336,-5.2172 -1.7062,-10.6148 -1.9851,-15.914 -0.2625,-4.9547 -0.6071,-9.8766 -1.4602,-14.7657 -0.3445,-1.9523 -0.6891,-4.0195 -1.9031,-5.6436998 -1.2469,-1.6735 -3.1828,-2.2313 -5.168,-2.2969 -6.1523,-0.1969 -12.3211,0.4922 -18.3914,1.3125 -2.0344,0.2789 -4.118,0.082 -6.1523,0.1641 -1.8374999,0.0656 -4.0031999,0.2297 -5.4140999,1.5586 -0.0984,0.0984 -0.1641,0.1804 -0.1969,0.2789 -2.182,1.0335998 -1.9687,4.6921998 -1.9687,6.6772998 0,1.5094 0.0656,3.0188 0.0984,4.5117 0.0328,1.3289 -0.1148,2.5922 -0.1805,3.9211 -0.2625,5.1352 0.9024,10.3524 1.7063,15.4055 0.3937,2.4773 0.968,4.9383 1.5094,7.3828 0.5578,2.5102 1.0008,5.0367 1.4601,7.5633 0.4266,2.4117 0.6891,4.8726 1.4274,7.2023 0.4757999,1.4766 1.3780999,2.6907 2.9202999,3.1336 0.6562,0.1805 1.3945,0.1477 2.0672,0.0985 1.1156,-0.0985 2.2476,-0.279 3.3633,-0.4102 2.6906,-0.3281 5.3484,-0.7711 8.0226,-1.2305 1.0828,-0.1804 2.182,-0.3445 3.2813,-0.5086 -0.1805,0.1477 -0.2954,0.3774 -0.3282,0.6071 -2.264,0.4593 -5.25,1.1976 -5.3156,4.0031 -0.0656,2.2969 1.9031,4.3312 4.0359,4.8891 -0.8531,0.082 -1.7062,0.1476 -2.5593,0.2132 -2.5594,0.1641 -5.1188,0.1805 -7.6946,0.2133 -2.0343,0.0328 -4.0851,0.7219 -6.1195,0.2953 -1.6897999,-0.3445 -2.4444999,-2.0015 -2.9530999,-3.4781 -0.5742,-1.657 -0.8695,-3.4289 -1.2469,-5.1351 -1.0992,-5.0696 -2.3953,-10.0407 -3.1008,-15.1758 -0.7218,-5.2172 -1.4109,-10.4344 -1.9195,-15.6844 -0.6891,-7.1203 -0.9516,-14.257 -0.6563,-21.4102 0.0493,-1.3781 0.1313,-2.7726 0.3118,-4.1506998 0.0656,-0.4758 0.1312,-0.9516 0.2461,-1.4274 0.0164,-0.0656 0.0328,-0.1148 0.0328,-0.1312 0.5414,-0.1805 0.6562,-1.09925 0.1148,-1.493 3.6094,-2.41172 8.2194999,-2.05078 12.3538999,-2.39531 4.9547,-0.41016 9.8602,-1.16485 14.8149,-1.52578 2.4445,-0.18047 4.889,-0.2461 7.3336,-0.03282 1.9195,0.16407 3.9703,0.42657 5.5453,1.62422 2.4937,1.93594 3.0679,5.51249 3.4453,8.4655898 0.5414,4.2657 0.9023,8.5477 1.2305,12.8297 0.4101,5.3321 1.0171,10.6313 1.6242,15.9469 0.5742,5.1023 0.8367,10.2211 1.1812,15.3398 0.1969,3.3633 0.7547,7.0219 -0.5414,10.2539 z"
     fill="#111111"
     id="path8" />
  <path
     d="m 24.024067,5.3642912 c -0.1476,-1.95235 -2.4281,-1.75547 -3.839,-1.73907 -0.3774,0 -0.6071,0.22969 -0.6891,0.49219 -0.8203,-0.36094 -1.4109,1.00078 -0.5906,1.54219 1.2633,0.85309 2.9203,0.59062 4.364,0.57422 0.443,0.0164 0.7875,-0.44297 0.7547,-0.86953 z m 10.2868,34.0101998 c -0.1149,-0.4102 -0.6563,-0.6727 -1.05,-0.5086 -1.7227,0.7054 -2.8876,2.1656 -4.0032,3.6093 -0.8367,1.0828 -1.6898,2.3297 -2.8218,3.1336 0.1804,-0.689 0.4757,-1.3617 0.771,-2.0015 0.5414,-1.1977 1.05,-2.3789 1.493,-3.6258 0.8695,-2.4774 1.575,-5.0039 2.1492,-7.5797 0.0328,-0.0984 0.0657,-0.2133 0.0657,-0.3281 v -0.1149 c 0,-0.0492 0,-0.0984 -0.0165,-0.1312 0,-0.0328 -0.0164,-0.0656 -0.0164,-0.0985 -0.0984,-0.3281 -0.3937,-0.4921 -0.7054,-0.5086 -0.1805,-0.0164 -0.3774,0.0165 -0.525,0.1149 -4.2656,2.5101 -6.9071,7.1367 -11.0906,9.6961 0.9023,-2.6906 2.6906,-5.1188 3.8226,-7.6945 0.8531,-1.9196 1.5094,-3.9704 2.1984,-5.9719 0.7219,-2.0672 1.3782,-4.1508 1.9032,-6.2672 0.2625,-1.0336 -1.3453,-1.3289 -1.6078,-0.3117 -0.525,2.0836 -1.1649,4.1179 -1.8704,6.1523 -0.689,1.9688 -1.3453,3.9703 -2.182,5.8735 -1.4109,3.1992 -3.7242,6.1031 -4.3148,9.6304 -0.0985,0.5742 0.4758,1.1977 1.0828,0.9352 4.643,-2.0508 7.3664,-6.4805 11.2547,-9.4828 -0.525,2.1 -1.1485,4.1672 -1.8868,6.2015 -0.8367,2.3297 -2.264,4.4625 -2.3296,7.0055 -0.0164,0.5578 0.6234,0.8531 1.0828,0.7055 1.7883,-0.5578 3.0679,-1.9852 4.1836,-3.4125 0.9023,-1.1649 1.8047,-2.5922 3.0515,-3.4782 0.0985,1.6899 -0.5742,3.5602 -1.1156,5.0368 -0.7383,2.0179 -1.657,3.9867 -2.6906,5.8734 -0.5086,0.9352 0.968,1.657 1.4765,0.7219 1.0993,-2.018 2.0672,-4.1344 2.8383,-6.3 0.7219,-2.1328 1.493,-4.6266 0.8532,-6.8742 z"
     fill="#111111"
     id="path10" />
</svg>
